<?xml version="1.0" encoding="UTF-8"?>
<svg xmlns="http://www.w3.org/2000/svg" viewBox="0 0 291.72 50.7">
  <g id="agulha">
    <g id="Layer_2" data-name="Layer 2">
      <path d="M38.81,25.6c0,2.05-4.67,1.81-4.67,1.81,0,0-33.63-1.46-33.63-1.81s33.63-1.81,33.63-1.81c0,0,4.67-.24,4.67,1.81Z" style="fill: none; stroke: #fff; stroke-miterlimit: 10; stroke-width: .5px;"/>
      <path d="M35.35,25.12h-1.57c-.26,0-.51.23-.5.5s.22.5.5.5h1.57c.26,0,.51-.23.5-.5s-.22-.5-.5-.5h0Z" style="fill: #fff;"/>
    </g>
  </g>
  <g id="linha">
    <path d="M38.81,25.85c.73-.1,1.47-.1,2.2-.08,1.61.04,3.23.3,4.74.87,1.15.44,2.17,1.07,3.07,1.9.75.69,1.45,1.44,2.16,2.17,1.82,1.91,3.66,3.79,5.75,5.41,2.4,1.85,5.11,3.32,8.07,4.03,2.74.66,5.62.75,8.27-.25,2.45-.92,4.6-2.5,6.57-4.2,2.24-1.94,4.29-4.1,6.35-6.22s4.2-4.31,6.52-6.23c2.15-1.77,4.52-3.37,7.18-4.26s5.33-.91,7.97-.16c2.77.78,5.31,2.23,7.71,3.8,2.62,1.71,5.11,3.6,7.7,5.36s5.19,3.37,8.06,4.52,5.94,1.7,9.03,1.41,6.14-1.38,8.96-2.74,5.73-3.16,8.55-4.82,5.55-3.19,8.57-4.23c2.7-.94,5.68-1.48,8.53-.97,2.35.42,4.47,1.56,6.35,3,2.01,1.53,3.76,3.38,5.48,5.22s3.58,3.89,5.54,5.66,4.04,3.29,6.43,4.31,5.2,1.52,7.86,1.25c2.25-.24,4.35-1.1,6.12-2.5s3.08-3.15,4.26-4.99c1.26-1.97,2.34-4.05,3.49-6.09s2.3-3.96,3.79-5.69c1.41-1.63,3.13-3.01,5.18-3.75,2.38-.87,5.08-.91,7.54-.33s4.66,1.82,6.64,3.34c2.08,1.6,3.92,3.48,5.78,5.32s3.82,3.79,5.96,5.42,4.55,2.97,7.17,3.7c1.6.45,3.21.62,4.86.65,2.04.04,4.08,0,6.11-.19,3.03-.27,6.06-.84,8.9-1.96,1.07-.42,2.11-.92,3.09-1.5.86-.51,1.75-1.08,2.49-1.76,1.8-1.67,1.1-4.45-.76-5.77-.93-.66-2.14-.88-3.22-.5-1.2.41-2.29,1.46-2.78,2.63-.82,1.91.35,3.88,1.59,5.3,1.51,1.73,3.41,3.12,5.34,4.35.96.62,1.95,1.21,2.96,1.73.29.15.54-.29.25-.43-1.07-.55-2.11-1.18-3.12-1.83-1.89-1.23-3.77-2.61-5.23-4.35-1.18-1.41-2.18-3.35-1.05-5.09.71-1.09,1.91-2.04,3.27-1.99,1.09.03,2.09.7,2.69,1.58s.85,2.01.43,3.02-1.4,1.58-2.24,2.14c-1.98,1.31-4.18,2.23-6.47,2.86-3.34.92-6.82,1.24-10.27,1.27-1.86.02-3.73.02-5.56-.37-1.36-.28-2.68-.72-3.94-1.31-2.42-1.13-4.56-2.74-6.54-4.51s-3.81-3.71-5.72-5.55-3.72-3.46-5.89-4.77-4.59-2.14-7.13-2.29c-2.4-.14-4.83.28-6.94,1.45-1.9,1.06-3.44,2.63-4.73,4.36-1.37,1.83-2.49,3.83-3.59,5.83s-2.21,4.05-3.53,5.94c-1.22,1.75-2.68,3.39-4.5,4.53-2,1.24-4.3,1.74-6.63,1.66-2.68-.08-5.26-.87-7.58-2.2s-4.21-3.01-6.05-4.83-3.56-3.79-5.37-5.65c-1.7-1.75-3.5-3.46-5.57-4.77s-4.25-2.1-6.62-2.22c-3-.15-5.97.6-8.72,1.74-2.95,1.21-5.7,2.84-8.43,4.46s-5.54,3.31-8.48,4.62-5.94,2.17-9.1,2.2-6.01-.82-8.75-2.11-5.4-3.06-7.93-4.84-4.96-3.59-7.57-5.19c-2.37-1.45-4.92-2.74-7.66-3.29s-5.35-.26-7.86.73-4.89,2.64-7,4.42c-2.29,1.94-4.38,4.1-6.47,6.25s-4.05,4.2-6.27,6.09c-1.94,1.66-4.1,3.2-6.54,4.02-2.72.91-5.69.66-8.41-.13-2.88-.84-5.48-2.4-7.78-4.29-1.96-1.61-3.7-3.46-5.46-5.29-.67-.7-1.34-1.4-2.08-2.02-1.03-.88-2.25-1.49-3.54-1.9-1.42-.44-2.91-.64-4.39-.66-.68-.01-1.36,0-2.03.09-.31.04-.32.54,0,.5h0Z" style="fill: #fff;"/>
  </g>
</svg>