<?xml version="1.0" encoding="UTF-8"?>
<svg xmlns="http://www.w3.org/2000/svg" viewBox="0 0 448.93 147.31">
  <g id="vetorização">
    <g>
      <path d="M111.76,108.92c-5.55,0-5.54-8.61,0-8.61h13.78c-1.14-9.96-9.36-16.82-9.36-16.82,0,0,0-8.5-1.32-13.42s-15.18,10.34-15.18,10.34c0,0-8.14-10.53-10.04-11.31s-7.01,12.63-7.58,25.68c-.56,13.05,6.62,19.28,6.62,19.28,0,0-10.41-1.03-19.43.29-9.83,1.44-10.78,8.21-19.36,18.18-8.58,9.97-14-1.1-14-1.1,0,0-1.4-2.93-3.01-2.71-2.41.32-2.32,2.96-1.47,4.62.25.48,4.39,7.84,11.29,8.28,8.61.56,16.79-12.54,16.79-12.54,0,0-.66,5.72,2.05,10.92,2.71,5.21,6.11,7.02,8.14,7.27,1.61.2,2.91-1.44,3.01-3.97.07-1.89-.44-4.62-.44-4.62l10.04.22s-.31,7.74,1.91,8.21c3.49.74,17.74-21.55,18.48-25.95,0,0,17.54.06,21.93-12.25h-12.86Z" style="fill: #fff; stroke: #fff; stroke-miterlimit: 10; stroke-width: .86px;"/>
      <ellipse cx="114.21" cy="104.62" rx="2.21" ry="4.17" style="fill: none; stroke: #fff; stroke-miterlimit: 10; stroke-width: .86px;"/>
      <path d="M124.61,108.92c1.51-3.51.98-8.14.98-8.14" style="fill: #fff; stroke: #fff; stroke-miterlimit: 10; stroke-width: .86px;"/>
      <rect x="116.8" y="100.66" width="7.31" height="7.78" style="fill: #fff; stroke: #fff; stroke-miterlimit: 10; stroke-width: .86px;"/>
      <rect x="104.16" y="100.73" width="7.31" height="7.78" style="fill: #fff; stroke: #fff; stroke-miterlimit: 10; stroke-width: .86px;"/>
      <rect x="115.68" y="99.54" width="2.49" height="2.49" transform="translate(-37.41 97.81) rotate(-39.66)" style="fill: #fff; stroke: #fff; stroke-miterlimit: 10; stroke-width: .86px;"/>
      <rect x="115.47" y="107.27" width="2.49" height="2.49" transform="translate(-35.61 155.34) rotate(-60)" style="fill: #fff; stroke: #fff; stroke-miterlimit: 10; stroke-width: .86px;"/>
      <rect x="109.88" y="99.49" width="2.49" height="2.49" transform="translate(-31.68 146.6) rotate(-60)" style="fill: #fff; stroke: #fff; stroke-miterlimit: 10; stroke-width: .86px;"/>
      <rect x="110.23" y="107.27" width="2.49" height="2.49" transform="translate(-42.73 88) rotate(-36.65)" style="fill: #fff; stroke: #fff; stroke-miterlimit: 10; stroke-width: .86px;"/>
      <rect x="122.87" y="100.53" width="2.49" height="5.33" style="fill: #fff; stroke: #fff; stroke-miterlimit: 10; stroke-width: .86px;"/>
      <rect x="122.12" y="102.88" width="2.62" height="4.88" style="fill: #fff; stroke: #fff; stroke-miterlimit: 10; stroke-width: .86px;"/>
    </g>
  </g>
  <g id="Layer_3" data-name="Layer 3">
    <g>
      <path d="M1.02,106.99c.48.82,23.46,20.21,71.04,2.64,0,0-48.67,7.24-47.99-5.83.27-5.18,14.41-6.58,26.83-4.23,12.9,2.44,22.09,6.98,22.09,6.98,0,0-19.04-17.43-28.15-34.15-8.77-16.08-8.7-32.89-1.76-35.85,5.05-2.15,10.87,2.99,15.9,9.61,7.62,10.04,12.33,21.99,13.97,34.49l3.42,26.33s4.81-11.13-.03-41.93C71.5,34.27,42.58-2.1,35.62.1c-11.44,3.61-15.17,40.27,2.68,73.17,11.99,22.1,34.7,33.29,34.7,33.29,0,0-16.76-13.86-38.07-12.85-20.89.99-35.34,10.8-33.9,13.29Z" style="fill: #fff; stroke: #fff; stroke-miterlimit: 10; stroke-width: .86px;"/>
      <path d="M57.09,98.3s-20.51-5.23-34.31-17.38C3.75,64.17,5.91,45.56,7.2,41.22c1.39-4.69,22.65,6.89,29.29,19.32,8.8,16.49,25.84,39.77,25.84,39.77,0,0-34.87-51.3-41.24-37.82-6.71,14.19,35.88,35.91,35.99,35.81Z" style="fill: #fff; stroke: #fff; stroke-miterlimit: 10; stroke-width: .86px;"/>
    </g>
    <g>
      <path d="M219.96,73.64c-3.67,2.89-8.08,5.15-13.23,6.77-5.15,1.62-10.79,2.43-16.93,2.43-5.71,0-11.02-1.1-15.92-3.28-4.9-2.19-9.19-5.17-12.86-8.94-3.67-3.77-6.54-8.18-8.62-13.23-2.08-5.04-3.12-10.42-3.12-16.14s1.04-11.07,3.12-16.08c2.08-5.01,4.95-9.38,8.62-13.12,3.67-3.74,7.95-6.68,12.86-8.84,4.9-2.15,10.21-3.23,15.92-3.23,6.14,0,11.78.81,16.93,2.43,5.15,1.62,9.56,3.88,13.23,6.77l-9.95,11.43c-2.82-1.76-5.94-3.1-9.36-4.02-3.42-.92-7.04-1.38-10.85-1.38-3.32,0-6.4.69-9.26,2.06s-5.34,3.23-7.46,5.56c-2.12,2.33-3.79,5.06-5.03,8.2-1.23,3.14-1.85,6.51-1.85,10.11s.62,7,1.85,10.21c1.23,3.21,2.91,6.01,5.03,8.41,2.12,2.4,4.6,4.3,7.46,5.71,2.86,1.41,5.94,2.12,9.26,2.12,5.08,0,9.84-.81,14.28-2.43v-23.91h15.87v32.38Z" style="fill: #fff;"/>
      <path d="M323.13,81.05h-16.93l-16.82-53.75-18.2,53.75h-16.93L229.48,1.69h16.61l17.46,54.71L281.44,1.69h16.61l17.46,54.71L333.28,1.69h16.82l-26.98,79.36Z" style="fill: #fff;"/>
      <path d="M361.43,1.69h15.87v79.36h-15.87V1.69Z" style="fill: #fff;"/>
      <path d="M400.58,1.69h15.87v64.12h32.48v15.24h-48.36V1.69Z" style="fill: #fff;"/>
    </g>
    <g>
      <path d="M152.03,125.16c0-2.86.52-5.54,1.56-8.04,1.04-2.5,2.48-4.69,4.31-6.56,1.83-1.87,3.98-3.34,6.43-4.42,2.45-1.08,5.11-1.61,7.96-1.61,3.07,0,5.89.41,8.46,1.22,2.57.81,4.78,1.94,6.61,3.39l-4.97,5.71c-1.41-.88-2.97-1.55-4.68-2.01-1.71-.46-3.52-.69-5.42-.69-1.66,0-3.2.34-4.63,1.03-1.43.69-2.67,1.61-3.73,2.78-1.06,1.16-1.9,2.53-2.51,4.1-.62,1.57-.93,3.25-.93,5.05s.31,3.5.93,5.11c.62,1.6,1.45,3.01,2.51,4.21,1.06,1.2,2.3,2.15,3.73,2.86,1.43.71,2.97,1.06,4.63,1.06,1.9,0,3.71-.23,5.42-.69,1.71-.46,3.27-1.13,4.68-2.01l4.97,5.72c-1.83,1.45-4.04,2.58-6.61,3.39-2.58.81-5.4,1.22-8.46,1.22-2.86,0-5.51-.55-7.96-1.64-2.45-1.09-4.59-2.58-6.43-4.47-1.83-1.89-3.27-4.09-4.31-6.61-1.04-2.52-1.56-5.21-1.56-8.07Z" style="fill: #fff;"/>
      <path d="M200.81,125.11c0-2.86.53-5.54,1.59-8.04,1.06-2.5,2.52-4.69,4.39-6.56,1.87-1.87,4.06-3.34,6.59-4.42,2.52-1.07,5.26-1.61,8.23-1.61s5.7.54,8.23,1.61c2.52,1.08,4.72,2.55,6.59,4.42,1.87,1.87,3.33,4.06,4.39,6.56,1.06,2.51,1.59,5.19,1.59,8.04s-.53,5.55-1.59,8.07c-1.06,2.52-2.52,4.73-4.39,6.61-1.87,1.89-4.07,3.39-6.59,4.5-2.52,1.11-5.26,1.67-8.23,1.67s-5.71-.55-8.23-1.67c-2.52-1.11-4.72-2.61-6.59-4.5-1.87-1.89-3.33-4.09-4.39-6.61-1.06-2.52-1.59-5.21-1.59-8.07ZM209.27,125.11c0,1.8.31,3.5.93,5.11.62,1.6,1.48,3.01,2.59,4.21,1.11,1.2,2.42,2.15,3.91,2.86,1.5.71,3.13,1.06,4.89,1.06s3.39-.35,4.89-1.06c1.5-.7,2.8-1.66,3.92-2.86,1.11-1.2,1.97-2.6,2.59-4.21.62-1.6.93-3.31.93-5.11s-.31-3.49-.93-5.08c-.62-1.59-1.48-2.96-2.59-4.13-1.11-1.16-2.42-2.09-3.92-2.78-1.5-.69-3.13-1.03-4.89-1.03s-3.39.34-4.89,1.03c-1.5.69-2.8,1.61-3.91,2.78-1.11,1.16-1.98,2.54-2.59,4.13-.62,1.59-.93,3.28-.93,5.08Z" style="fill: #fff;"/>
      <path d="M277.84,115.69c-1.06-.78-2.22-1.51-3.49-2.2s-2.77-1.03-4.5-1.03c-1.16,0-2.13.38-2.88,1.14s-1.14,1.65-1.14,2.67c0,.71.41,1.35,1.24,1.93.83.58,1.87,1.19,3.12,1.83,1.25.63,2.6,1.33,4.05,2.09,1.45.76,2.8,1.66,4.05,2.7,1.25,1.04,2.29,2.26,3.12,3.65.83,1.39,1.24,3.06,1.24,5,0,1.38-.24,2.8-.71,4.26-.48,1.46-1.23,2.8-2.27,4.02-1.04,1.22-2.37,2.22-3.99,3.02-1.62.79-3.6,1.19-5.93,1.19-2.15,0-3.99-.21-5.53-.63-1.53-.42-2.86-.96-3.97-1.61-1.11-.65-2.06-1.38-2.83-2.17-.78-.79-1.48-1.58-2.12-2.36l4.76-6.03c1.2,1.34,2.58,2.49,4.15,3.44,1.57.95,3.41,1.43,5.53,1.43,1.62,0,2.74-.4,3.36-1.19.62-.79.93-1.75.93-2.88,0-.92-.41-1.72-1.24-2.41-.83-.69-1.86-1.36-3.1-2.01-1.23-.65-2.57-1.34-3.99-2.06-1.43-.72-2.76-1.56-3.99-2.51-1.23-.95-2.27-2.09-3.09-3.41-.83-1.32-1.24-2.9-1.24-4.73,0-1.73.29-3.34.87-4.84.58-1.5,1.41-2.8,2.49-3.89,1.08-1.09,2.37-1.96,3.89-2.59,1.52-.63,3.19-.95,5.03-.95,1.38,0,2.69.15,3.94.45,1.25.3,2.42.69,3.49,1.16,1.08.48,2.05,1,2.91,1.59.86.58,1.6,1.14,2.2,1.67l-4.34,6.3Z" style="fill: #fff;"/>
      <path d="M298.63,105.38h9.95c2.33,0,4.43.24,6.32.71,1.89.48,3.48,1.22,4.79,2.22,1.3,1,2.31,2.31,3.01,3.91s1.06,3.52,1.06,5.74c0,2.61-.39,4.77-1.16,6.48-.78,1.71-1.81,3.07-3.1,4.07-1.29,1.01-2.79,1.71-4.5,2.12s-3.52.61-5.42.61h-3.02v13.81h-7.94v-39.68ZM306.56,112.99v10.63h2.06c1.02,0,1.95-.08,2.78-.24.83-.16,1.53-.45,2.12-.87s1.02-1.01,1.32-1.75.45-1.67.45-2.8c0-1.8-.59-3.08-1.77-3.84-1.18-.76-2.83-1.14-4.95-1.14h-2.01Z" style="fill: #fff;"/>
      <path d="M339.47,105.38h7.94v32.06h16.24v7.62h-24.18v-39.68Z" style="fill: #fff;"/>
      <path d="M398.57,136.7h-14.34l-2.96,8.36h-8.52l14.39-39.68h8.31l15.08,39.68h-8.68l-3.28-8.36ZM386.98,129.08h8.73l-4.39-12.06-4.34,12.06Z" style="fill: #fff;"/>
      <path d="M426.98,128.65l-13.81-23.28h9.21l8.57,15.24,8.78-15.24h9.21l-14.02,23.28v16.4h-7.94v-16.4Z" style="fill: #fff;"/>
    </g>
  </g>
</svg>